<svg width="256" height="256" viewBox="0 0 256 256" fill="none" xmlns="http://www.w3.org/2000/svg">
<g clip-path="url(#clip0_1213_67)">
<path d="M196 0H60C26.8629 0 0 26.8629 0 60V196C0 229.137 26.8629 256 60 256H196C229.137 256 256 229.137 256 196V60C256 26.8629 229.137 0 196 0Z" fill="#242938"/>
<path d="M127.999 220.001L165.561 106.809H90.4409L128 219.997L127.999 220.001Z" fill="#E24329"/>
<path d="M127.999 220.001L90.4408 106.809H37.8008L127.999 219.997V220.001Z" fill="#FC6D26"/>
<path d="M37.8002 106.806L26.3832 141.206C25.3402 144.342 26.4772 147.78 29.2052 149.719L128 220.001L37.8002 106.809V106.806Z" fill="#FCA326"/>
<path d="M37.7998 106.805H90.4408L67.8168 38.63C66.6528 35.123 61.5818 35.123 60.4198 38.63L37.7998 106.808V106.805Z" fill="#E24329"/>
<path d="M128 220.001L165.562 106.809H218.205L128 219.997V220.001Z" fill="#FC6D26"/>
<path d="M218.203 106.806L229.619 141.206C230.66 144.342 229.519 147.78 226.795 149.719L128 220.001L218.203 106.809V106.806Z" fill="#FCA326"/>
<path d="M218.202 106.805H165.562L188.184 38.63C189.349 35.124 194.419 35.124 195.581 38.63L218.205 106.808L218.202 106.805Z" fill="#E24329"/>
</g>
<defs>
<clipPath id="clip0_1213_67">
<rect width="256" height="256" fill="white"/>
</clipPath>
</defs>
</svg>
