<svg width="16" height="18" viewBox="0 0 16 18" fill="none" xmlns="http://www.w3.org/2000/svg">
<path d="M15.1249 2.39997H13.1249V4.19997C13.1249 4.37332 13.0965 4.54496 13.0412 4.70511C12.9859 4.86526 12.9049 5.01078 12.8027 5.13335C12.7006 5.25593 12.5793 5.35316 12.4459 5.41949C12.3124 5.48583 12.1694 5.51997 12.0249 5.51997C11.8805 5.51997 11.7374 5.48583 11.604 5.41949C11.4705 5.35316 11.3493 5.25593 11.2471 5.13335C11.145 5.01078 11.064 4.86526 11.0087 4.70511C10.9534 4.54496 10.925 4.37332 10.925 4.19997V2.39997H5.10005V4.19997C5.10005 4.55006 4.98416 4.8858 4.77787 5.13335C4.57158 5.3809 4.2918 5.51997 4.00006 5.51997C3.70833 5.51997 3.42855 5.3809 3.22226 5.13335C3.01597 4.8858 2.90008 4.55006 2.90008 4.19997V2.39997H0.900114C0.781128 2.39835 0.663078 2.42537 0.552947 2.47945C0.442815 2.53353 0.342839 2.61356 0.258931 2.71481C0.175023 2.81606 0.108887 2.93647 0.0644342 3.06893C0.0199816 3.20139 -0.0018847 3.3432 0.000128523 3.48597V16.914C-0.00185795 17.0542 0.0192003 17.1936 0.0621004 17.3241C0.105 17.4546 0.168902 17.5736 0.250155 17.6745C0.331408 17.7753 0.428421 17.856 0.535653 17.9118C0.642885 17.9677 0.758235 17.9976 0.875114 18H15.1249C15.2418 17.9976 15.3571 17.9677 15.4643 17.9118C15.5716 17.856 15.6686 17.7753 15.7498 17.6745C15.8311 17.5736 15.895 17.4546 15.9379 17.3241C15.9808 17.1936 16.0019 17.0542 15.9999 16.914V3.48597C16.0019 3.34571 15.9808 3.20636 15.9379 3.07587C15.895 2.94538 15.8311 2.82631 15.7498 2.72547C15.6686 2.62462 15.5716 2.54397 15.4643 2.48812C15.3571 2.43227 15.2418 2.40232 15.1249 2.39997ZM4.00006 14.4H3.00008V13.2H4.00006V14.4ZM4.00006 11.4H3.00008V10.2H4.00006V11.4ZM4.00006 8.39997H3.00008V7.19997H4.00006V8.39997ZM7.00002 14.4H6.00003V13.2H7.00002V14.4ZM7.00002 11.4H6.00003V10.2H7.00002V11.4ZM7.00002 8.39997H6.00003V7.19997H7.00002V8.39997ZM9.99997 14.4H8.99998V13.2H9.99997V14.4ZM9.99997 11.4H8.99998V10.2H9.99997V11.4ZM9.99997 8.39997H8.99998V7.19997H9.99997V8.39997ZM12.9999 14.4H11.9999V13.2H12.9999V14.4ZM12.9999 11.4H11.9999V10.2H12.9999V11.4ZM12.9999 8.39997H11.9999V7.19997H12.9999V8.39997Z" fill="#545454"/>
<path d="M4.00011 4.8C4.13272 4.8 4.25989 4.73679 4.35366 4.62427C4.44743 4.51174 4.50011 4.35913 4.50011 4.2V0.6C4.50011 0.44087 4.44743 0.288258 4.35366 0.175736C4.25989 0.0632141 4.13272 0 4.00011 0C3.86751 0 3.74033 0.0632141 3.64657 0.175736C3.5528 0.288258 3.50012 0.44087 3.50012 0.6V4.2C3.50012 4.35913 3.5528 4.51174 3.64657 4.62427C3.74033 4.73679 3.86751 4.8 4.00011 4.8Z" fill="#545454"/>
<path d="M11.9999 4.8C12.1325 4.8 12.2597 4.73679 12.3534 4.62427C12.4472 4.51174 12.4999 4.35913 12.4999 4.2V0.6C12.4999 0.44087 12.4472 0.288258 12.3534 0.175736C12.2597 0.0632141 12.1325 0 11.9999 0C11.8673 0 11.7401 0.0632141 11.6463 0.175736C11.5526 0.288258 11.4999 0.44087 11.4999 0.6V4.2C11.4999 4.35913 11.5526 4.51174 11.6463 4.62427C11.7401 4.73679 11.8673 4.8 11.9999 4.8Z" fill="#545454"/>
</svg>
