<svg width="256" height="256" viewBox="0 0 256 256" fill="none" xmlns="http://www.w3.org/2000/svg">
<g clip-path="url(#clip0_1212_45)">
<path d="M196 0H60C26.8629 0 0 26.8629 0 60V196C0 229.137 26.8629 256 60 256H196C229.137 256 256 229.137 256 196V60C256 26.8629 229.137 0 196 0Z" fill="#FF3E00"/>
<mask id="mask0_1212_45" style="mask-type:luminance" maskUnits="userSpaceOnUse" x="53" y="38" width="150" height="180">
<path d="M53 38H202.644V218H53V38Z" fill="white"/>
</mask>
<g mask="url(#mask0_1212_45)">
<path d="M193.034 61.797C176.407 37.847 143.305 30.831 119.509 45.932L77.5591 72.78C66.1191 79.95 58.1871 91.695 55.8991 104.966C53.9151 116.102 55.5931 127.542 60.9321 137.458C57.2721 142.949 54.8301 149.051 53.7621 155.458C51.3221 169.034 54.5261 183.068 62.4581 194.203C79.2381 218.153 112.186 225.169 135.983 210.068L177.932 183.373C189.373 176.203 197.305 164.458 199.593 151.186C201.576 140.051 199.898 128.61 194.559 118.695C198.22 113.203 200.661 107.102 201.729 100.695C204.322 86.966 201.119 72.932 193.034 61.797Z" fill="white"/>
<path d="M115.39 196.491C108.797 198.201 101.838 197.846 95.4544 195.472C89.0703 193.099 83.5692 188.822 79.6951 183.22C74.8141 176.508 72.9831 168.119 74.3551 159.881C74.6611 158.508 74.9661 157.288 75.2711 155.915L76.0341 153.475L78.1691 155C83.1649 158.642 88.7329 161.426 94.6441 163.237L96.1691 163.695L96.0171 165.22C95.8641 167.356 96.4751 169.644 97.6951 171.475C100.136 174.983 104.407 176.661 108.525 175.593C109.441 175.288 110.356 174.983 111.119 174.525L152.915 147.83C155.051 146.458 156.424 144.475 156.881 142.034C157.339 139.593 156.729 137 155.356 135.017C152.915 131.508 148.644 129.983 144.525 131.051C143.61 131.356 142.695 131.661 141.932 132.119L125.915 142.339C123.322 144.017 120.424 145.237 117.373 146C110.78 147.71 103.822 147.354 97.4377 144.98C91.0538 142.607 85.5526 138.33 81.6781 132.729C76.9491 126.017 74.9661 117.627 76.4921 109.39C77.8641 101.458 82.7461 94.288 89.6101 90.017L131.559 63.322C134.152 61.644 137.051 60.424 140.102 59.508C146.695 57.798 153.654 58.1539 160.038 60.5276C166.422 62.9012 171.923 67.1782 175.797 72.78C180.678 79.492 182.508 87.881 181.136 96.119C180.83 97.492 180.525 98.712 180.068 100.085L179.305 102.525L177.169 101C172.174 97.358 166.606 94.5742 160.695 92.763L159.169 92.305L159.322 90.78C159.475 88.644 158.864 86.356 157.644 84.525C155.203 81.017 150.932 79.491 146.814 80.559C145.898 80.864 144.983 81.169 144.22 81.627L102.424 108.322C100.288 109.695 98.9151 111.678 98.4581 114.119C98.0001 116.559 98.6101 119.153 99.9831 121.136C102.424 124.644 106.695 126.169 110.814 125.102C111.729 124.797 112.644 124.491 113.407 124.034L129.424 113.814C132.017 112.136 134.915 110.915 137.966 110C144.559 108.29 151.518 108.645 157.902 111.019C164.286 113.392 169.787 117.669 173.661 123.271C178.542 129.983 180.373 138.373 179 146.61C177.627 154.542 172.746 161.712 165.881 165.983L123.932 192.678C121.339 194.356 118.441 195.576 115.39 196.491Z" fill="#FF3E00"/>
</g>
</g>
<defs>
<clipPath id="clip0_1212_45">
<rect width="256" height="256" fill="white"/>
</clipPath>
</defs>
</svg>
